<mxfile host="app.diagrams.net" modified="2022-10-24T13:41:53.518Z" agent="5.0 (Windows NT 10.0; Win64; x64) AppleWebKit/537.36 (KHTML, like Gecko) Chrome/106.0.0.0 Safari/537.36 Edg/106.0.1370.52" etag="AaVP57qwasabpa2xIj7A" version="20.5.1" type="github">
  <diagram id="DlbZVYgtLoxQPH42LOPV" name="第 1 页">
    <mxGraphModel dx="1691" dy="559" grid="1" gridSize="10" guides="1" tooltips="1" connect="1" arrows="1" fold="1" page="1" pageScale="1" pageWidth="827" pageHeight="1169" math="0" shadow="0">
      <root>
        <mxCell id="0" />
        <mxCell id="1" parent="0" />
        <mxCell id="XcbggA3BBUMzlUa0fJI8-1" value="bag =&lt;font color=&quot;#00b800&quot;&gt; { }&lt;/font&gt;&lt;br&gt;candidate = {1, 2, 2&#39; }" style="rounded=1;whiteSpace=wrap;html=1;" parent="1" vertex="1">
          <mxGeometry x="320" y="60" width="120" height="60" as="geometry" />
        </mxCell>
        <mxCell id="XcbggA3BBUMzlUa0fJI8-2" value="bag = &lt;font color=&quot;#00b800&quot;&gt;{ 1 }&lt;/font&gt;&lt;br&gt;candidate = {2, 2&#39;}" style="rounded=1;whiteSpace=wrap;html=1;" parent="1" vertex="1">
          <mxGeometry x="160" y="239" width="120" height="60" as="geometry" />
        </mxCell>
        <mxCell id="XcbggA3BBUMzlUa0fJI8-3" value="bag = &lt;font color=&quot;#00b800&quot;&gt;{ 2 }&lt;/font&gt;&lt;br&gt;candidate = { 2&#39; }" style="rounded=1;whiteSpace=wrap;html=1;" parent="1" vertex="1">
          <mxGeometry x="320" y="239" width="120" height="60" as="geometry" />
        </mxCell>
        <mxCell id="XcbggA3BBUMzlUa0fJI8-4" value="&lt;font color=&quot;#999999&quot;&gt;bag = { 2&#39; }&lt;br&gt;candidate = { }&lt;/font&gt;" style="rounded=1;whiteSpace=wrap;html=1;strokeColor=#CCCCCC;" parent="1" vertex="1">
          <mxGeometry x="480" y="239" width="120" height="60" as="geometry" />
        </mxCell>
        <mxCell id="XcbggA3BBUMzlUa0fJI8-5" value="bag = &lt;font color=&quot;#00b800&quot;&gt;{ 1, 2 }&lt;/font&gt;&lt;br&gt;candidate = { 2&#39; }" style="rounded=1;whiteSpace=wrap;html=1;" parent="1" vertex="1">
          <mxGeometry y="400" width="120" height="60" as="geometry" />
        </mxCell>
        <mxCell id="XcbggA3BBUMzlUa0fJI8-6" value="&lt;font color=&quot;#666666&quot;&gt;bag = { 1, 2&#39; }&lt;br&gt;candidate = { }&lt;/font&gt;" style="rounded=1;whiteSpace=wrap;html=1;strokeColor=#CCCCCC;" parent="1" vertex="1">
          <mxGeometry x="160" y="400" width="120" height="60" as="geometry" />
        </mxCell>
        <mxCell id="XcbggA3BBUMzlUa0fJI8-7" value="" style="endArrow=classic;html=1;rounded=0;strokeWidth=4;entryX=0.5;entryY=0;entryDx=0;entryDy=0;exitX=0;exitY=0.75;exitDx=0;exitDy=0;" parent="1" source="XcbggA3BBUMzlUa0fJI8-1" target="XcbggA3BBUMzlUa0fJI8-2" edge="1">
          <mxGeometry width="50" height="50" relative="1" as="geometry">
            <mxPoint x="320" y="120" as="sourcePoint" />
            <mxPoint x="290" y="250" as="targetPoint" />
          </mxGeometry>
        </mxCell>
        <mxCell id="XcbggA3BBUMzlUa0fJI8-8" value="bag = &lt;font color=&quot;#00b800&quot;&gt;{ 1, 2, 2&#39; }&lt;/font&gt;&lt;br&gt;candidate = {&amp;nbsp; }" style="rounded=1;whiteSpace=wrap;html=1;" parent="1" vertex="1">
          <mxGeometry x="-120" y="560" width="120" height="60" as="geometry" />
        </mxCell>
        <mxCell id="XcbggA3BBUMzlUa0fJI8-9" value="" style="endArrow=classic;html=1;rounded=0;strokeWidth=4;entryX=0.5;entryY=0;entryDx=0;entryDy=0;exitX=0;exitY=0.5;exitDx=0;exitDy=0;" parent="1" source="XcbggA3BBUMzlUa0fJI8-2" target="XcbggA3BBUMzlUa0fJI8-5" edge="1">
          <mxGeometry width="50" height="50" relative="1" as="geometry">
            <mxPoint x="120" y="300" as="sourcePoint" />
            <mxPoint x="-10" y="410" as="targetPoint" />
          </mxGeometry>
        </mxCell>
        <mxCell id="XcbggA3BBUMzlUa0fJI8-10" value="" style="endArrow=classic;html=1;rounded=0;strokeWidth=4;entryX=0.5;entryY=0;entryDx=0;entryDy=0;exitX=0;exitY=0.75;exitDx=0;exitDy=0;" parent="1" source="XcbggA3BBUMzlUa0fJI8-5" target="XcbggA3BBUMzlUa0fJI8-8" edge="1">
          <mxGeometry width="50" height="50" relative="1" as="geometry">
            <mxPoint x="-40" y="430" as="sourcePoint" />
            <mxPoint x="-140" y="560" as="targetPoint" />
          </mxGeometry>
        </mxCell>
        <mxCell id="XcbggA3BBUMzlUa0fJI8-11" value="" style="endArrow=classic;html=1;rounded=0;strokeWidth=4;entryX=0.5;entryY=0;entryDx=0;entryDy=0;exitX=0.5;exitY=1;exitDx=0;exitDy=0;" parent="1" source="XcbggA3BBUMzlUa0fJI8-1" target="XcbggA3BBUMzlUa0fJI8-3" edge="1">
          <mxGeometry width="50" height="50" relative="1" as="geometry">
            <mxPoint x="420" y="140" as="sourcePoint" />
            <mxPoint x="369.40999999999997" y="210" as="targetPoint" />
          </mxGeometry>
        </mxCell>
        <mxCell id="XcbggA3BBUMzlUa0fJI8-14" value="&lt;font color=&quot;#000000&quot; style=&quot;font-size: 14px;&quot;&gt;Given input = [1, 2, 2&#39; ], 2&#39; denotes duplicate of 2&lt;/font&gt;" style="text;html=1;strokeColor=none;fillColor=none;align=center;verticalAlign=middle;whiteSpace=wrap;rounded=0;fontColor=#00B800;" parent="1" vertex="1">
          <mxGeometry x="-90" y="75" width="320" height="30" as="geometry" />
        </mxCell>
        <mxCell id="XcbggA3BBUMzlUa0fJI8-15" value="&lt;font color=&quot;#000000&quot; style=&quot;font-size: 14px;&quot;&gt;We can get all subset from each node of backtracking search tree&lt;br&gt;All subset = &lt;/font&gt;&lt;font style=&quot;font-size: 14px;&quot;&gt;{ }&lt;/font&gt;&lt;font color=&quot;#000000&quot; style=&quot;font-size: 14px;&quot;&gt;,&lt;/font&gt;&lt;font style=&quot;font-size: 14px;&quot;&gt;{ 1 }&lt;/font&gt;&lt;font color=&quot;#000000&quot; style=&quot;font-size: 14px;&quot;&gt;, &lt;/font&gt;&lt;font style=&quot;font-size: 14px;&quot;&gt;{1, 2}&lt;/font&gt;&lt;font color=&quot;#000000&quot; style=&quot;font-size: 14px;&quot;&gt;, &lt;/font&gt;&lt;font style=&quot;font-size: 14px;&quot;&gt;{1, 2, 2&#39;}&lt;/font&gt;&lt;font color=&quot;#000000&quot; style=&quot;font-size: 14px;&quot;&gt;, &lt;/font&gt;&lt;font style=&quot;font-size: 14px;&quot;&gt;{ 2 }&lt;/font&gt;&lt;font color=&quot;#000000&quot; style=&quot;font-size: 14px;&quot;&gt;, &lt;/font&gt;&lt;font style=&quot;font-size: 14px;&quot;&gt;{2, 2&#39;}&lt;/font&gt;&lt;font style=&quot;font-size: 14px;&quot;&gt;&lt;br&gt;&lt;/font&gt;" style="text;html=1;strokeColor=none;fillColor=none;align=left;verticalAlign=middle;whiteSpace=wrap;rounded=0;fontColor=#00B800;" parent="1" vertex="1">
          <mxGeometry x="90" y="575" width="520" height="30" as="geometry" />
        </mxCell>
        <mxCell id="XcbggA3BBUMzlUa0fJI8-16" value="bag = &lt;font color=&quot;#00b800&quot;&gt;{ 2, 2&#39; }&lt;/font&gt;&lt;br&gt;candidate = {&amp;nbsp; }" style="rounded=1;whiteSpace=wrap;html=1;" parent="1" vertex="1">
          <mxGeometry x="320" y="400" width="120" height="60" as="geometry" />
        </mxCell>
        <mxCell id="XcbggA3BBUMzlUa0fJI8-17" value="" style="endArrow=classic;html=1;rounded=0;strokeWidth=4;entryX=0.5;entryY=0;entryDx=0;entryDy=0;exitX=0.5;exitY=1;exitDx=0;exitDy=0;" parent="1" edge="1">
          <mxGeometry width="50" height="50" relative="1" as="geometry">
            <mxPoint x="379.40999999999997" y="299" as="sourcePoint" />
            <mxPoint x="379.40999999999997" y="400" as="targetPoint" />
          </mxGeometry>
        </mxCell>
        <mxCell id="XcbggA3BBUMzlUa0fJI8-18" value="select 1" style="text;html=1;strokeColor=none;fillColor=none;align=center;verticalAlign=middle;whiteSpace=wrap;rounded=0;fontSize=14;fontColor=#000000;" parent="1" vertex="1">
          <mxGeometry x="190" y="150" width="60" height="30" as="geometry" />
        </mxCell>
        <mxCell id="XcbggA3BBUMzlUa0fJI8-19" value="select 2" style="text;html=1;strokeColor=none;fillColor=none;align=center;verticalAlign=middle;whiteSpace=wrap;rounded=0;fontSize=14;fontColor=#000000;" parent="1" vertex="1">
          <mxGeometry x="320" y="160" width="60" height="30" as="geometry" />
        </mxCell>
        <mxCell id="XcbggA3BBUMzlUa0fJI8-20" value="select 2&#39;" style="text;html=1;strokeColor=none;fillColor=none;align=center;verticalAlign=middle;whiteSpace=wrap;rounded=0;fontSize=14;fontColor=#000000;" parent="1" vertex="1">
          <mxGeometry x="510" y="150" width="60" height="30" as="geometry" />
        </mxCell>
        <mxCell id="XcbggA3BBUMzlUa0fJI8-21" value="select 2" style="text;html=1;strokeColor=none;fillColor=none;align=center;verticalAlign=middle;whiteSpace=wrap;rounded=0;fontSize=14;fontColor=#000000;" parent="1" vertex="1">
          <mxGeometry x="40" y="310" width="60" height="30" as="geometry" />
        </mxCell>
        <mxCell id="XcbggA3BBUMzlUa0fJI8-22" value="select 2&#39;" style="text;html=1;strokeColor=none;fillColor=none;align=center;verticalAlign=middle;whiteSpace=wrap;rounded=0;fontSize=14;fontColor=#000000;" parent="1" vertex="1">
          <mxGeometry x="220" y="320" width="60" height="30" as="geometry" />
        </mxCell>
        <mxCell id="XcbggA3BBUMzlUa0fJI8-23" value="select 2&#39;" style="text;html=1;strokeColor=none;fillColor=none;align=center;verticalAlign=middle;whiteSpace=wrap;rounded=0;fontSize=14;fontColor=#000000;" parent="1" vertex="1">
          <mxGeometry x="390" y="320" width="60" height="30" as="geometry" />
        </mxCell>
        <mxCell id="XcbggA3BBUMzlUa0fJI8-24" value="select 3" style="text;html=1;strokeColor=none;fillColor=none;align=center;verticalAlign=middle;whiteSpace=wrap;rounded=0;fontSize=14;fontColor=#000000;" parent="1" vertex="1">
          <mxGeometry x="-90" y="460" width="60" height="30" as="geometry" />
        </mxCell>
        <mxCell id="7nifZTS9oukVQhGeMA5X-2" value="" style="endArrow=none;dashed=1;html=1;dashPattern=1 3;strokeWidth=2;rounded=0;fontSize=14;fontColor=#00B800;entryX=1;entryY=1;entryDx=0;entryDy=0;exitX=0.5;exitY=0;exitDx=0;exitDy=0;" edge="1" parent="1" source="XcbggA3BBUMzlUa0fJI8-4" target="XcbggA3BBUMzlUa0fJI8-1">
          <mxGeometry width="50" height="50" relative="1" as="geometry">
            <mxPoint x="440" y="170" as="sourcePoint" />
            <mxPoint x="490" y="120" as="targetPoint" />
          </mxGeometry>
        </mxCell>
        <mxCell id="7nifZTS9oukVQhGeMA5X-3" value="" style="endArrow=none;dashed=1;html=1;dashPattern=1 3;strokeWidth=2;rounded=0;fontSize=14;fontColor=#00B800;entryX=1;entryY=1;entryDx=0;entryDy=0;exitX=0.5;exitY=0;exitDx=0;exitDy=0;" edge="1" parent="1" source="XcbggA3BBUMzlUa0fJI8-6">
          <mxGeometry width="50" height="50" relative="1" as="geometry">
            <mxPoint x="320" y="418" as="sourcePoint" />
            <mxPoint x="220" y="299" as="targetPoint" />
          </mxGeometry>
        </mxCell>
        <mxCell id="7nifZTS9oukVQhGeMA5X-4" value="" style="verticalLabelPosition=bottom;verticalAlign=top;html=1;shape=mxgraph.basic.x;fontSize=14;fillColor=#FF0000;strokeColor=#b85450;strokeWidth=0;" vertex="1" parent="1">
          <mxGeometry x="200" y="353" width="40" height="30" as="geometry" />
        </mxCell>
        <mxCell id="7nifZTS9oukVQhGeMA5X-15" value="" style="verticalLabelPosition=bottom;verticalAlign=top;html=1;shape=mxgraph.basic.x;fontSize=14;fillColor=#FF0000;strokeColor=#b85450;strokeWidth=0;" vertex="1" parent="1">
          <mxGeometry x="457" y="155" width="40" height="30" as="geometry" />
        </mxCell>
      </root>
    </mxGraphModel>
  </diagram>
</mxfile>
